<?xml version="1.0" encoding="UTF-8" standalone="no"?>
<svg
   xmlns:dc="http://purl.org/dc/elements/1.1/"
   xmlns:cc="http://creativecommons.org/ns#"
   xmlns:rdf="http://www.w3.org/1999/02/22-rdf-syntax-ns#"
   xmlns:svg="http://www.w3.org/2000/svg"
   xmlns="http://www.w3.org/2000/svg"
   xmlns:sodipodi="http://sodipodi.sourceforge.net/DTD/sodipodi-0.dtd"
   xmlns:inkscape="http://www.inkscape.org/namespaces/inkscape"
   sodipodi:docname="01.svg"
   inkscape:version="1.0.1 (3bc2e813f5, 2020-09-07)"
   id="svg8"
   version="1.1"
   viewBox="0 0 210 80"
   height="80mm"
   width="210mm">
  <defs
     id="defs2">
    <rect
       x="81.286803"
       y="45.320618"
       width="36.288751"
       height="33.224368"
       id="rect1011" />
    <rect
       x="78.061136"
       y="46.449602"
       width="46.772168"
       height="36.288751"
       id="rect1005" />
    <rect
       x="80.802953"
       y="47.739868"
       width="49.997835"
       height="34.353351"
       id="rect999" />
    <rect
       x="94.350753"
       y="48.062435"
       width="0.80641669"
       height="6.6126169"
       id="rect993" />
  </defs>
  <sodipodi:namedview
     inkscape:document-rotation="0"
     units="mm"
     showborder="false"
     inkscape:window-maximized="1"
     inkscape:window-y="-8"
     inkscape:window-x="-8"
     inkscape:window-height="1017"
     inkscape:window-width="1920"
     showgrid="false"
     inkscape:current-layer="layer1"
     inkscape:document-units="mm"
     inkscape:cy="184.26738"
     inkscape:cx="390.50866"
     inkscape:zoom="1.6404877"
     inkscape:pageshadow="2"
     inkscape:pageopacity="0.0"
     borderopacity="1.0"
     bordercolor="#666666"
     pagecolor="#ffffff"
     id="base" />
  <metadata
     id="metadata5">
    <rdf:RDF>
      <cc:Work
         rdf:about="">
        <dc:format>image/svg+xml</dc:format>
        <dc:type
           rdf:resource="http://purl.org/dc/dcmitype/StillImage" />
        <dc:title />
      </cc:Work>
    </rdf:RDF>
  </metadata>
  <g
     id="layer1"
     inkscape:groupmode="layer"
     inkscape:label="Capa 1">
    <text
       xml:space="preserve"
       style="font-style:normal;font-weight:normal;font-size:6.35px;line-height:1.25;font-family:sans-serif;letter-spacing:0px;word-spacing:0px;fill:#000000;fill-opacity:1;stroke:none;stroke-width:0.264583"
       x="84.31823"
       y="24.038067"
       id="text4775" />
    <path
       style="fill:none;stroke:#000000;stroke-width:0.171;stroke-linecap:butt;stroke-linejoin:miter;stroke-miterlimit:4;stroke-dasharray:none;stroke-opacity:1"
       d="m 140.05875,47.805818 h 60"
       id="path5288" />
    <path
       style="fill:none;stroke:#000000;stroke-width:0.171;stroke-linecap:butt;stroke-linejoin:miter;stroke-miterlimit:4;stroke-dasharray:none;stroke-opacity:1"
       d="M 9.9447384,47.805818 H 69.944744"
       id="path5290" />
    <path
       style="fill:none;stroke:#000000;stroke-width:0.171;stroke-linecap:butt;stroke-linejoin:miter;stroke-miterlimit:4;stroke-dasharray:none;stroke-opacity:1"
       d="M 25.001747,11.693958 H 185.00175"
       id="path816" />
    <path
       style="fill:none;stroke:#000000;stroke-width:0.171;stroke-linecap:butt;stroke-linejoin:miter;stroke-miterlimit:4;stroke-dasharray:none;stroke-opacity:1"
       d="m 79.861093,11.779458 v 7"
       id="path5351" />
    <g
       id="Filled_outline-7"
       data-name="Filled outline"
       transform="matrix(0.02083333,0,0,0.02083333,11.04691,54.557985)">
      <rect
         fill="#85ccd5"
         height="200"
         rx="16"
         width="464"
         x="24"
         y="288"
         id="rect2-7" />
      <rect
         fill="#4db6e4"
         height="232"
         rx="24"
         width="352"
         x="80"
         y="24"
         id="rect4" />
      <path
         d="m 80,184 v 48 a 24,24 0 0 0 24,24 h 304 a 24,24 0 0 0 24,-24 V 56 Z"
         fill="#4aafdb"
         id="path6-7" />
      <path
         d="M 408,256 H 104 A 24,24 0 0 1 80,232 v -24 h 352 v 24 a 24,24 0 0 1 -24,24 z"
         fill="#dfdfdd"
         id="path8-9" />
      <path
         d="m 304,328 h -96 l 10.67,-48 5.33,-24 h 64 l 5.33,24 z"
         fill="#d5d5d3"
         id="path10-9" />
      <path
         d="m 184,320 h 144 v 16 H 184 Z"
         fill="#dfdfdd"
         id="path12-4" />
      <path
         d="M 293.33,280 H 218.67 L 224,256 h 64 z"
         fill="#c6c6c4"
         id="path14" />
      <path
         d="m 104,360 h 256 v 96 H 104 Z"
         fill="#dfdfdd"
         id="path16-9" />
      <rect
         fill="#dfdfdd"
         height="96"
         rx="32"
         width="64"
         x="392"
         y="360"
         id="rect18" />
      <path
         d="m 112,400 v 48 H 352 V 368 H 112 v 16 H 96 v -24 a 8,8 0 0 1 8,-8 h 256 a 8,8 0 0 1 8,8 v 96 a 8,8 0 0 1 -8,8 H 104 a 8,8 0 0 1 -8,-8 v -56 z m 48,32 H 304 V 416 H 160 Z m -32,0 h 16 v -16 h -16 z m 192,0 h 16 V 416 H 320 Z M 144,384 h -16 v 16 h 16 z m 16,0 v 16 h 16 v -16 z m 32,0 v 16 h 16 v -16 z m 32,0 v 16 h 16 v -16 z m 32,0 v 16 h 16 v -16 z m 48,0 h -16 v 16 h 16 z m 32,0 h -16 v 16 h 16 z m 88,80 a 40.045,40.045 0 0 1 -40,-40 v -32 a 40,40 0 0 1 80,0 v 32 a 40.045,40.045 0 0 1 -40,40 z m 0,-16 a 24.027,24.027 0 0 0 24,-24 v -32 a 24,24 0 0 0 -48,0 v 32 a 24.027,24.027 0 0 0 24,24 z m 56,24 a 8.009,8.009 0 0 1 -8,8 H 40 a 8.009,8.009 0 0 1 -8,-8 V 304 a 8.009,8.009 0 0 1 8,-8 H 192 V 280 H 40 a 24.028,24.028 0 0 0 -24,24 v 168 a 24.028,24.028 0 0 0 24,24 h 432 a 24.028,24.028 0 0 0 24,-24 V 456 H 480 Z M 472,280 H 320 v 16 h 152 a 8.009,8.009 0 0 1 8,8 v 136 h 16 V 304 A 24.028,24.028 0 0 0 472,280 Z M 72,232 V 88 H 88 V 200 H 424 V 48 A 16.019,16.019 0 0 0 408,32 H 104 A 16.019,16.019 0 0 0 88,48 V 72 H 72 V 48 a 32.036,32.036 0 0 1 32,-32 h 304 a 32.036,32.036 0 0 1 32,32 v 184 a 32.036,32.036 0 0 1 -32,32 H 297.973 l 12.444,56 H 328 v 16 H 184 v -16 h 17.583 l 12.444,-56 H 104 A 32.036,32.036 0 0 1 72,232 Z m 209.583,32 h -51.166 l -12.444,56 h 76.054 z M 88,216 v 16 a 16.019,16.019 0 0 0 16,16 h 304 a 16.019,16.019 0 0 0 16,-16 V 216 Z M 120,48 h -16 v 16 h 16 z m -16,112 h 16 V 80 h -16 z"
         id="path20" />
    </g>
    <text
       xml:space="preserve"
       style="font-size:2.82222px;line-height:1.25;font-family:sans-serif;stroke-width:0.264583"
       x="10.103283"
       y="68.09388"
       id="text862"><tspan
         sodipodi:role="line"
         id="tspan860"
         x="10.103283"
         y="68.09388"
         style="font-size:2.82222px;stroke-width:0.264583">Windows</tspan><tspan
         sodipodi:role="line"
         x="10.103283"
         y="71.621658"
         style="font-size:2.82222px;stroke-width:0.264583"
         id="tspan864" /></text>
    <text
       xml:space="preserve"
       style="font-size:2.82222px;line-height:1.25;font-family:sans-serif;stroke-width:0.264583"
       x="58.489052"
       y="68.09388"
       id="text868"><tspan
         sodipodi:role="line"
         id="tspan866"
         x="58.489052"
         y="68.09388"
         style="font-size:2.82222px;stroke-width:0.264583">Debian</tspan></text>
    <g
       id="g890"
       data-name="Filled outline"
       transform="matrix(0.02083333,0,0,0.02083333,58.175908,54.557985)">
      <rect
         fill="#85ccd5"
         height="200"
         rx="16"
         width="464"
         x="24"
         y="288"
         id="rect870" />
      <rect
         fill="#4db6e4"
         height="232"
         rx="24"
         width="352"
         x="80"
         y="24"
         id="rect872" />
      <path
         d="m 80,184 v 48 a 24,24 0 0 0 24,24 h 304 a 24,24 0 0 0 24,-24 V 56 Z"
         fill="#4aafdb"
         id="path874" />
      <path
         d="M 408,256 H 104 A 24,24 0 0 1 80,232 v -24 h 352 v 24 a 24,24 0 0 1 -24,24 z"
         fill="#dfdfdd"
         id="path876" />
      <path
         d="m 304,328 h -96 l 10.67,-48 5.33,-24 h 64 l 5.33,24 z"
         fill="#d5d5d3"
         id="path878" />
      <path
         d="m 184,320 h 144 v 16 H 184 Z"
         fill="#dfdfdd"
         id="path880" />
      <path
         d="M 293.33,280 H 218.67 L 224,256 h 64 z"
         fill="#c6c6c4"
         id="path882" />
      <path
         d="m 104,360 h 256 v 96 H 104 Z"
         fill="#dfdfdd"
         id="path884" />
      <rect
         fill="#dfdfdd"
         height="96"
         rx="32"
         width="64"
         x="392"
         y="360"
         id="rect886" />
      <path
         d="m 112,400 v 48 H 352 V 368 H 112 v 16 H 96 v -24 a 8,8 0 0 1 8,-8 h 256 a 8,8 0 0 1 8,8 v 96 a 8,8 0 0 1 -8,8 H 104 a 8,8 0 0 1 -8,-8 v -56 z m 48,32 H 304 V 416 H 160 Z m -32,0 h 16 v -16 h -16 z m 192,0 h 16 V 416 H 320 Z M 144,384 h -16 v 16 h 16 z m 16,0 v 16 h 16 v -16 z m 32,0 v 16 h 16 v -16 z m 32,0 v 16 h 16 v -16 z m 32,0 v 16 h 16 v -16 z m 48,0 h -16 v 16 h 16 z m 32,0 h -16 v 16 h 16 z m 88,80 a 40.045,40.045 0 0 1 -40,-40 v -32 a 40,40 0 0 1 80,0 v 32 a 40.045,40.045 0 0 1 -40,40 z m 0,-16 a 24.027,24.027 0 0 0 24,-24 v -32 a 24,24 0 0 0 -48,0 v 32 a 24.027,24.027 0 0 0 24,24 z m 56,24 a 8.009,8.009 0 0 1 -8,8 H 40 a 8.009,8.009 0 0 1 -8,-8 V 304 a 8.009,8.009 0 0 1 8,-8 H 192 V 280 H 40 a 24.028,24.028 0 0 0 -24,24 v 168 a 24.028,24.028 0 0 0 24,24 h 432 a 24.028,24.028 0 0 0 24,-24 V 456 H 480 Z M 472,280 H 320 v 16 h 152 a 8.009,8.009 0 0 1 8,8 v 136 h 16 V 304 A 24.028,24.028 0 0 0 472,280 Z M 72,232 V 88 H 88 V 200 H 424 V 48 A 16.019,16.019 0 0 0 408,32 H 104 A 16.019,16.019 0 0 0 88,48 V 72 H 72 V 48 a 32.036,32.036 0 0 1 32,-32 h 304 a 32.036,32.036 0 0 1 32,32 v 184 a 32.036,32.036 0 0 1 -32,32 H 297.973 l 12.444,56 H 328 v 16 H 184 v -16 h 17.583 l 12.444,-56 H 104 A 32.036,32.036 0 0 1 72,232 Z m 209.583,32 h -51.166 l -12.444,56 h 76.054 z M 88,216 v 16 a 16.019,16.019 0 0 0 16,16 h 304 a 16.019,16.019 0 0 0 16,-16 V 216 Z M 120,48 h -16 v 16 h 16 z m -16,112 h 16 V 80 h -16 z"
         id="path888" />
    </g>
    <text
       xml:space="preserve"
       style="font-size:2.82222px;line-height:1.25;font-family:sans-serif;stroke-width:0.264583"
       x="7.8274546"
       y="71.815964"
       id="text894"><tspan
         sodipodi:role="line"
         x="7.8274546"
         y="71.815964"
         style="font-size:2.82222px;stroke-width:0.264583"
         id="tspan896">192.168.8.1</tspan></text>
    <text
       xml:space="preserve"
       style="font-size:2.82222px;line-height:1.25;font-family:sans-serif;stroke-width:0.264583"
       x="54.967476"
       y="71.815964"
       id="text902"><tspan
         sodipodi:role="line"
         x="54.967476"
         y="71.815964"
         style="font-size:2.82222px;stroke-width:0.264583"
         id="tspan900">192.168.8.2</tspan></text>
    <text
       xml:space="preserve"
       style="font-size:2.82222px;line-height:1.25;font-family:sans-serif;stroke-width:0.264583"
       x="20.486166"
       y="51.09388"
       id="text906"><tspan
         sodipodi:role="line"
         id="tspan904"
         x="20.486166"
         y="51.09388"
         style="font-size:2.82222px;stroke-width:0.264583">Red interna 192.168.8.0/24</tspan></text>
    <text
       xml:space="preserve"
       style="font-size:2.82222px;line-height:1.25;font-family:sans-serif;stroke-width:0.264583"
       x="73.964951"
       y="32.095016"
       id="text926"><tspan
         sodipodi:role="line"
         id="tspan924"
         x="73.964951"
         y="32.095016"
         style="font-size:2.82222px;stroke-width:0.264583">Anfitrión</tspan></text>
    <text
       xml:space="preserve"
       style="font-size:2.82222px;line-height:1.25;font-family:sans-serif;stroke-width:0.264583"
       x="73.350349"
       y="35.866707"
       id="text930"><tspan
         sodipodi:role="line"
         id="tspan928"
         x="73.350349"
         y="35.866707"
         style="font-size:2.82222px;stroke-width:0.264583">Ubuntu 8</tspan></text>
    <g
       id="g952"
       data-name="Filled outline"
       transform="matrix(0.02083333,0,0,0.02083333,74.55442,18.446125)">
      <rect
         fill="#85ccd5"
         height="200"
         rx="16"
         width="464"
         x="24"
         y="288"
         id="rect932" />
      <rect
         fill="#4db6e4"
         height="232"
         rx="24"
         width="352"
         x="80"
         y="24"
         id="rect934" />
      <path
         d="m 80,184 v 48 a 24,24 0 0 0 24,24 h 304 a 24,24 0 0 0 24,-24 V 56 Z"
         fill="#4aafdb"
         id="path936" />
      <path
         d="M 408,256 H 104 A 24,24 0 0 1 80,232 v -24 h 352 v 24 a 24,24 0 0 1 -24,24 z"
         fill="#dfdfdd"
         id="path938" />
      <path
         d="m 304,328 h -96 l 10.67,-48 5.33,-24 h 64 l 5.33,24 z"
         fill="#d5d5d3"
         id="path940" />
      <path
         d="m 184,320 h 144 v 16 H 184 Z"
         fill="#dfdfdd"
         id="path942" />
      <path
         d="M 293.33,280 H 218.67 L 224,256 h 64 z"
         fill="#c6c6c4"
         id="path944" />
      <path
         d="m 104,360 h 256 v 96 H 104 Z"
         fill="#dfdfdd"
         id="path946" />
      <rect
         fill="#dfdfdd"
         height="96"
         rx="32"
         width="64"
         x="392"
         y="360"
         id="rect948" />
      <path
         d="m 112,400 v 48 H 352 V 368 H 112 v 16 H 96 v -24 a 8,8 0 0 1 8,-8 h 256 a 8,8 0 0 1 8,8 v 96 a 8,8 0 0 1 -8,8 H 104 a 8,8 0 0 1 -8,-8 v -56 z m 48,32 H 304 V 416 H 160 Z m -32,0 h 16 v -16 h -16 z m 192,0 h 16 V 416 H 320 Z M 144,384 h -16 v 16 h 16 z m 16,0 v 16 h 16 v -16 z m 32,0 v 16 h 16 v -16 z m 32,0 v 16 h 16 v -16 z m 32,0 v 16 h 16 v -16 z m 48,0 h -16 v 16 h 16 z m 32,0 h -16 v 16 h 16 z m 88,80 a 40.045,40.045 0 0 1 -40,-40 v -32 a 40,40 0 0 1 80,0 v 32 a 40.045,40.045 0 0 1 -40,40 z m 0,-16 a 24.027,24.027 0 0 0 24,-24 v -32 a 24,24 0 0 0 -48,0 v 32 a 24.027,24.027 0 0 0 24,24 z m 56,24 a 8.009,8.009 0 0 1 -8,8 H 40 a 8.009,8.009 0 0 1 -8,-8 V 304 a 8.009,8.009 0 0 1 8,-8 H 192 V 280 H 40 a 24.028,24.028 0 0 0 -24,24 v 168 a 24.028,24.028 0 0 0 24,24 h 432 a 24.028,24.028 0 0 0 24,-24 V 456 H 480 Z M 472,280 H 320 v 16 h 152 a 8.009,8.009 0 0 1 8,8 v 136 h 16 V 304 A 24.028,24.028 0 0 0 472,280 Z M 72,232 V 88 H 88 V 200 H 424 V 48 A 16.019,16.019 0 0 0 408,32 H 104 A 16.019,16.019 0 0 0 88,48 V 72 H 72 V 48 a 32.036,32.036 0 0 1 32,-32 h 304 a 32.036,32.036 0 0 1 32,32 v 184 a 32.036,32.036 0 0 1 -32,32 H 297.973 l 12.444,56 H 328 v 16 H 184 v -16 h 17.583 l 12.444,-56 H 104 A 32.036,32.036 0 0 1 72,232 Z m 209.583,32 h -51.166 l -12.444,56 h 76.054 z M 88,216 v 16 a 16.019,16.019 0 0 0 16,16 h 304 a 16.019,16.019 0 0 0 16,-16 V 216 Z M 120,48 h -16 v 16 h 16 z m -16,112 h 16 V 80 h -16 z"
         id="path950" />
    </g>
    <text
       xml:space="preserve"
       style="font-size:2.82222px;line-height:1.25;font-family:sans-serif;stroke-width:0.264583"
       x="87.648125"
       y="10.2883"
       id="text956"><tspan
         sodipodi:role="line"
         id="tspan954"
         x="87.648125"
         y="10.2883"
         style="font-size:2.82222px;stroke-width:0.264583">Red del aula 10.1.0.0/16</tspan></text>
    <text
       xml:space="preserve"
       style="font-size:2.82222px;line-height:1.25;font-family:sans-serif;stroke-width:0.264583"
       x="124.19294"
       y="32.095016"
       id="text960"><tspan
         sodipodi:role="line"
         id="tspan958"
         x="124.19294"
         y="32.095016"
         style="font-size:2.82222px;stroke-width:0.264583">Anfitrión</tspan></text>
    <text
       xml:space="preserve"
       style="font-size:2.82222px;line-height:1.25;font-family:sans-serif;stroke-width:0.264583"
       x="123.60521"
       y="35.866707"
       id="text964"><tspan
         sodipodi:role="line"
         id="tspan962"
         x="123.60521"
         y="35.866707"
         style="font-size:2.82222px;stroke-width:0.264583">Ubuntu n</tspan></text>
    <g
       id="g986"
       data-name="Filled outline"
       transform="matrix(0.02083333,0,0,0.02083333,124.78242,18.446125)">
      <rect
         fill="#85ccd5"
         height="200"
         rx="16"
         width="464"
         x="24"
         y="288"
         id="rect966" />
      <rect
         fill="#4db6e4"
         height="232"
         rx="24"
         width="352"
         x="80"
         y="24"
         id="rect968" />
      <path
         d="m 80,184 v 48 a 24,24 0 0 0 24,24 h 304 a 24,24 0 0 0 24,-24 V 56 Z"
         fill="#4aafdb"
         id="path970" />
      <path
         d="M 408,256 H 104 A 24,24 0 0 1 80,232 v -24 h 352 v 24 a 24,24 0 0 1 -24,24 z"
         fill="#dfdfdd"
         id="path972" />
      <path
         d="m 304,328 h -96 l 10.67,-48 5.33,-24 h 64 l 5.33,24 z"
         fill="#d5d5d3"
         id="path974" />
      <path
         d="m 184,320 h 144 v 16 H 184 Z"
         fill="#dfdfdd"
         id="path976" />
      <path
         d="M 293.33,280 H 218.67 L 224,256 h 64 z"
         fill="#c6c6c4"
         id="path978" />
      <path
         d="m 104,360 h 256 v 96 H 104 Z"
         fill="#dfdfdd"
         id="path980" />
      <rect
         fill="#dfdfdd"
         height="96"
         rx="32"
         width="64"
         x="392"
         y="360"
         id="rect982" />
      <path
         d="m 112,400 v 48 H 352 V 368 H 112 v 16 H 96 v -24 a 8,8 0 0 1 8,-8 h 256 a 8,8 0 0 1 8,8 v 96 a 8,8 0 0 1 -8,8 H 104 a 8,8 0 0 1 -8,-8 v -56 z m 48,32 H 304 V 416 H 160 Z m -32,0 h 16 v -16 h -16 z m 192,0 h 16 V 416 H 320 Z M 144,384 h -16 v 16 h 16 z m 16,0 v 16 h 16 v -16 z m 32,0 v 16 h 16 v -16 z m 32,0 v 16 h 16 v -16 z m 32,0 v 16 h 16 v -16 z m 48,0 h -16 v 16 h 16 z m 32,0 h -16 v 16 h 16 z m 88,80 a 40.045,40.045 0 0 1 -40,-40 v -32 a 40,40 0 0 1 80,0 v 32 a 40.045,40.045 0 0 1 -40,40 z m 0,-16 a 24.027,24.027 0 0 0 24,-24 v -32 a 24,24 0 0 0 -48,0 v 32 a 24.027,24.027 0 0 0 24,24 z m 56,24 a 8.009,8.009 0 0 1 -8,8 H 40 a 8.009,8.009 0 0 1 -8,-8 V 304 a 8.009,8.009 0 0 1 8,-8 H 192 V 280 H 40 a 24.028,24.028 0 0 0 -24,24 v 168 a 24.028,24.028 0 0 0 24,24 h 432 a 24.028,24.028 0 0 0 24,-24 V 456 H 480 Z M 472,280 H 320 v 16 h 152 a 8.009,8.009 0 0 1 8,8 v 136 h 16 V 304 A 24.028,24.028 0 0 0 472,280 Z M 72,232 V 88 H 88 V 200 H 424 V 48 A 16.019,16.019 0 0 0 408,32 H 104 A 16.019,16.019 0 0 0 88,48 V 72 H 72 V 48 a 32.036,32.036 0 0 1 32,-32 h 304 a 32.036,32.036 0 0 1 32,32 v 184 a 32.036,32.036 0 0 1 -32,32 H 297.973 l 12.444,56 H 328 v 16 H 184 v -16 h 17.583 l 12.444,-56 H 104 A 32.036,32.036 0 0 1 72,232 Z m 209.583,32 h -51.166 l -12.444,56 h 76.054 z M 88,216 v 16 a 16.019,16.019 0 0 0 16,16 h 304 a 16.019,16.019 0 0 0 16,-16 V 216 Z M 120,48 h -16 v 16 h 16 z m -16,112 h 16 V 80 h -16 z"
         id="path984" />
    </g>
    <text
       xml:space="preserve"
       style="font-size:2.82222px;line-height:1.25;font-family:sans-serif;stroke-width:0.264583"
       x="163.29465"
       y="21.932407"
       id="text990"><tspan
         sodipodi:role="line"
         x="163.29465"
         y="21.932407"
         style="font-size:2.82222px;stroke-width:0.264583"
         id="tspan988">10.1.37.n</tspan></text>
    <g
       id="g1008"
       data-name="Filled outline"
       transform="matrix(0.02083333,0,0,0.02083333,164.72541,22.697376)">
      <rect
         fill="#348ed8"
         height="248"
         rx="32"
         width="464"
         x="24"
         y="192"
         id="rect992" />
      <g
         fill="#2d7dbe"
         id="g1004">
        <path
           d="M 422.111,472 H 89.889 A 16,16 0 0 1 75.578,463.155 L 64,440 h 384 l -11.578,23.155 A 16,16 0 0 1 422.111,472 Z"
           id="path994" />
        <path
           d="M 216,192 H 176 L 168.548,35.513 A 10.991,10.991 0 0 1 179.526,24 h 1.146 a 10.99,10.99 0 0 1 6.1,1.846 l 16.642,11.1 a 10.991,10.991 0 0 1 4.879,8.567 z"
           id="path996" />
        <path
           d="M 112,192 H 72 L 49.792,36.545 A 10.991,10.991 0 0 1 60.672,24 a 10.99,10.99 0 0 1 6.1,1.846 l 17.22,11.482 a 10.988,10.988 0 0 1 4.759,7.43 z"
           id="path998" />
        <path
           d="m 296,192 h 40 L 343.452,35.513 A 10.991,10.991 0 0 0 332.474,24 h -1.146 a 10.99,10.99 0 0 0 -6.1,1.846 l -16.642,11.1 a 10.991,10.991 0 0 0 -4.879,8.567 z"
           id="path1000" />
        <path
           d="m 400,192 h 40 L 462.208,36.545 A 10.991,10.991 0 0 0 451.328,24 a 10.99,10.99 0 0 0 -6.1,1.846 l -17.22,11.482 a 10.988,10.988 0 0 0 -4.759,7.43 z"
           id="path1002" />
      </g>
      <path
         d="M 496,368 V 224 a 40.045,40.045 0 0 0 -40,-40 h -6.775 l 20.9,-146.324 A 18.991,18.991 0 0 0 440.791,19.189 L 423.57,30.672 a 19.038,19.038 0 0 0 -8.223,12.839 L 393.164,184 H 344.39 L 351.443,35.894 A 18.991,18.991 0 0 0 332.474,16 h -1.146 a 18.934,18.934 0 0 0 -10.534,3.189 l -16.644,11.1 a 19.082,19.082 0 0 0 -8.429,14.8 L 288.41,184 H 223.59 L 216.279,45.087 a 19.083,19.083 0 0 0 -8.43,-14.8 L 191.206,19.189 A 18.934,18.934 0 0 0 180.672,16 h -1.146 A 18.991,18.991 0 0 0 160.557,35.9 L 167.61,184 H 118.836 L 96.653,43.512 A 19.038,19.038 0 0 0 88.43,30.672 L 71.206,19.189 A 18.991,18.991 0 0 0 41.872,37.676 l 3.922,27.455 15.84,-2.262 -3.922,-27.457 a 2.99,2.99 0 0 1 4.619,-2.91 l 17.224,11.482 a 3,3 0 0 1 1.294,2.023 L 102.638,184 h -23.7 L 63.689,77.258 47.85,79.521 62.775,184 H 56 a 40.045,40.045 0 0 0 -40,40 v 184 a 40.045,40.045 0 0 0 40,40 h 3.056 l 9.367,18.732 A 23.867,23.867 0 0 0 89.889,480 h 332.222 a 23.868,23.868 0 0 0 21.466,-13.267 L 452.944,448 H 456 a 40.045,40.045 0 0 0 40,-40 v -23 h -16 v 23 a 24.028,24.028 0 0 1 -24,24 H 56 A 24.028,24.028 0 0 1 32,408 V 224 a 24.028,24.028 0 0 1 24,-24 h 400 a 24.028,24.028 0 0 1 24,24 v 144 z m -60.944,80 -5.789,11.578 A 7.958,7.958 0 0 1 422.111,464 H 89.889 a 7.957,7.957 0 0 1 -7.156,-4.423 L 76.944,448 Z M 183.628,184 176.539,35.134 a 2.978,2.978 0 0 1 0.819,-2.2 4.409,4.409 0 0 1 4.973,-0.429 L 198.973,43.6 a 3.007,3.007 0 0 1 1.328,2.333 L 207.567,184 Z m 120.805,0 7.267,-138.071 a 3,3 0 0 1 1.327,-2.332 L 329.669,32.5 a 4.347,4.347 0 0 1 4.969,0.425 2.971,2.971 0 0 1 0.823,2.206 L 328.372,184 Z m 104.929,0 21.789,-137.994 a 3,3 0 0 1 1.294,-2.022 L 449.669,32.5 a 2.99,2.99 0 0 1 4.619,2.911 L 433.062,184 Z M 248,416 v -16 h 16 v 16 z m -40,-16 h 16 v 16 h -16 z m -40,0 h 16 v 16 h -16 z m -40,16 v -16 h 16 v 16 z m 240,0 v -16 h 16 v 16 z m -40,-16 h 16 v 16 h -16 z m -40,0 h 16 v 16 H 288 Z M 64,240 H 48 V 224 H 64 Z M 48,256 H 64 V 360 H 48 Z"
         id="path1006" />
    </g>
    <text
       xml:space="preserve"
       style="font-size:2.82222px;line-height:1.25;font-family:sans-serif;stroke-width:0.264583"
       x="165.03856"
       y="35.89994"
       id="text1012"><tspan
         sodipodi:role="line"
         id="tspan1010"
         x="165.03856"
         y="35.89994"
         style="font-size:2.82222px;stroke-width:0.264583">Debian</tspan></text>
    <text
       xml:space="preserve"
       style="font-size:2.82222px;line-height:1.25;font-family:sans-serif;stroke-width:0.264583"
       x="159.66284"
       y="39.622021"
       id="text1016"><tspan
         sodipodi:role="line"
         x="159.66284"
         y="39.622021"
         style="font-size:2.82222px;stroke-width:0.264583"
         id="tspan1014">192.168.n.254</tspan></text>
    <text
       xml:space="preserve"
       style="font-size:2.82222px;line-height:1.25;font-family:sans-serif;stroke-width:0.264583"
       x="150.60362"
       y="51.09388"
       id="text1020"><tspan
         sodipodi:role="line"
         id="tspan1018"
         x="150.60362"
         y="51.09388"
         style="font-size:2.82222px;stroke-width:0.264583">Red interna 192.168.n.0/24</tspan></text>
    <text
       xml:space="preserve"
       style="font-size:2.82222px;line-height:1.25;font-family:sans-serif;stroke-width:0.264583"
       x="141.47411"
       y="68.09388"
       id="text1024"><tspan
         sodipodi:role="line"
         id="tspan1022"
         x="141.47411"
         y="68.09388"
         style="font-size:2.82222px;stroke-width:0.264583">Debian</tspan></text>
    <g
       id="g1046"
       data-name="Filled outline"
       transform="matrix(0.02083333,0,0,0.02083333,141.16096,54.557985)">
      <rect
         fill="#85ccd5"
         height="200"
         rx="16"
         width="464"
         x="24"
         y="288"
         id="rect1026" />
      <rect
         fill="#4db6e4"
         height="232"
         rx="24"
         width="352"
         x="80"
         y="24"
         id="rect1028" />
      <path
         d="m 80,184 v 48 a 24,24 0 0 0 24,24 h 304 a 24,24 0 0 0 24,-24 V 56 Z"
         fill="#4aafdb"
         id="path1030" />
      <path
         d="M 408,256 H 104 A 24,24 0 0 1 80,232 v -24 h 352 v 24 a 24,24 0 0 1 -24,24 z"
         fill="#dfdfdd"
         id="path1032" />
      <path
         d="m 304,328 h -96 l 10.67,-48 5.33,-24 h 64 l 5.33,24 z"
         fill="#d5d5d3"
         id="path1034" />
      <path
         d="m 184,320 h 144 v 16 H 184 Z"
         fill="#dfdfdd"
         id="path1036" />
      <path
         d="M 293.33,280 H 218.67 L 224,256 h 64 z"
         fill="#c6c6c4"
         id="path1038" />
      <path
         d="m 104,360 h 256 v 96 H 104 Z"
         fill="#dfdfdd"
         id="path1040" />
      <rect
         fill="#dfdfdd"
         height="96"
         rx="32"
         width="64"
         x="392"
         y="360"
         id="rect1042" />
      <path
         d="m 112,400 v 48 H 352 V 368 H 112 v 16 H 96 v -24 a 8,8 0 0 1 8,-8 h 256 a 8,8 0 0 1 8,8 v 96 a 8,8 0 0 1 -8,8 H 104 a 8,8 0 0 1 -8,-8 v -56 z m 48,32 H 304 V 416 H 160 Z m -32,0 h 16 v -16 h -16 z m 192,0 h 16 V 416 H 320 Z M 144,384 h -16 v 16 h 16 z m 16,0 v 16 h 16 v -16 z m 32,0 v 16 h 16 v -16 z m 32,0 v 16 h 16 v -16 z m 32,0 v 16 h 16 v -16 z m 48,0 h -16 v 16 h 16 z m 32,0 h -16 v 16 h 16 z m 88,80 a 40.045,40.045 0 0 1 -40,-40 v -32 a 40,40 0 0 1 80,0 v 32 a 40.045,40.045 0 0 1 -40,40 z m 0,-16 a 24.027,24.027 0 0 0 24,-24 v -32 a 24,24 0 0 0 -48,0 v 32 a 24.027,24.027 0 0 0 24,24 z m 56,24 a 8.009,8.009 0 0 1 -8,8 H 40 a 8.009,8.009 0 0 1 -8,-8 V 304 a 8.009,8.009 0 0 1 8,-8 H 192 V 280 H 40 a 24.028,24.028 0 0 0 -24,24 v 168 a 24.028,24.028 0 0 0 24,24 h 432 a 24.028,24.028 0 0 0 24,-24 V 456 H 480 Z M 472,280 H 320 v 16 h 152 a 8.009,8.009 0 0 1 8,8 v 136 h 16 V 304 A 24.028,24.028 0 0 0 472,280 Z M 72,232 V 88 H 88 V 200 H 424 V 48 A 16.019,16.019 0 0 0 408,32 H 104 A 16.019,16.019 0 0 0 88,48 V 72 H 72 V 48 a 32.036,32.036 0 0 1 32,-32 h 304 a 32.036,32.036 0 0 1 32,32 v 184 a 32.036,32.036 0 0 1 -32,32 H 297.973 l 12.444,56 H 328 v 16 H 184 v -16 h 17.583 l 12.444,-56 H 104 A 32.036,32.036 0 0 1 72,232 Z m 209.583,32 h -51.166 l -12.444,56 h 76.054 z M 88,216 v 16 a 16.019,16.019 0 0 0 16,16 h 304 a 16.019,16.019 0 0 0 16,-16 V 216 Z M 120,48 h -16 v 16 h 16 z m -16,112 h 16 V 80 h -16 z"
         id="path1044" />
    </g>
    <text
       xml:space="preserve"
       style="font-size:2.82222px;line-height:1.25;font-family:sans-serif;stroke-width:0.264583"
       x="137.95598"
       y="71.815964"
       id="text1050"><tspan
         sodipodi:role="line"
         x="137.95598"
         y="71.815964"
         style="font-size:2.82222px;stroke-width:0.264583"
         id="tspan1048">192.168.n.2</tspan></text>
    <g
       id="g1072"
       data-name="Filled outline"
       transform="matrix(0.02083333,0,0,0.02083333,188.28988,54.557985)">
      <rect
         fill="#85ccd5"
         height="200"
         rx="16"
         width="464"
         x="24"
         y="288"
         id="rect1052" />
      <rect
         fill="#4db6e4"
         height="232"
         rx="24"
         width="352"
         x="80"
         y="24"
         id="rect1054" />
      <path
         d="m 80,184 v 48 a 24,24 0 0 0 24,24 h 304 a 24,24 0 0 0 24,-24 V 56 Z"
         fill="#4aafdb"
         id="path1056" />
      <path
         d="M 408,256 H 104 A 24,24 0 0 1 80,232 v -24 h 352 v 24 a 24,24 0 0 1 -24,24 z"
         fill="#dfdfdd"
         id="path1058" />
      <path
         d="m 304,328 h -96 l 10.67,-48 5.33,-24 h 64 l 5.33,24 z"
         fill="#d5d5d3"
         id="path1060" />
      <path
         d="m 184,320 h 144 v 16 H 184 Z"
         fill="#dfdfdd"
         id="path1062" />
      <path
         d="M 293.33,280 H 218.67 L 224,256 h 64 z"
         fill="#c6c6c4"
         id="path1064" />
      <path
         d="m 104,360 h 256 v 96 H 104 Z"
         fill="#dfdfdd"
         id="path1066" />
      <rect
         fill="#dfdfdd"
         height="96"
         rx="32"
         width="64"
         x="392"
         y="360"
         id="rect1068" />
      <path
         d="m 112,400 v 48 H 352 V 368 H 112 v 16 H 96 v -24 a 8,8 0 0 1 8,-8 h 256 a 8,8 0 0 1 8,8 v 96 a 8,8 0 0 1 -8,8 H 104 a 8,8 0 0 1 -8,-8 v -56 z m 48,32 H 304 V 416 H 160 Z m -32,0 h 16 v -16 h -16 z m 192,0 h 16 V 416 H 320 Z M 144,384 h -16 v 16 h 16 z m 16,0 v 16 h 16 v -16 z m 32,0 v 16 h 16 v -16 z m 32,0 v 16 h 16 v -16 z m 32,0 v 16 h 16 v -16 z m 48,0 h -16 v 16 h 16 z m 32,0 h -16 v 16 h 16 z m 88,80 a 40.045,40.045 0 0 1 -40,-40 v -32 a 40,40 0 0 1 80,0 v 32 a 40.045,40.045 0 0 1 -40,40 z m 0,-16 a 24.027,24.027 0 0 0 24,-24 v -32 a 24,24 0 0 0 -48,0 v 32 a 24.027,24.027 0 0 0 24,24 z m 56,24 a 8.009,8.009 0 0 1 -8,8 H 40 a 8.009,8.009 0 0 1 -8,-8 V 304 a 8.009,8.009 0 0 1 8,-8 H 192 V 280 H 40 a 24.028,24.028 0 0 0 -24,24 v 168 a 24.028,24.028 0 0 0 24,24 h 432 a 24.028,24.028 0 0 0 24,-24 V 456 H 480 Z M 472,280 H 320 v 16 h 152 a 8.009,8.009 0 0 1 8,8 v 136 h 16 V 304 A 24.028,24.028 0 0 0 472,280 Z M 72,232 V 88 H 88 V 200 H 424 V 48 A 16.019,16.019 0 0 0 408,32 H 104 A 16.019,16.019 0 0 0 88,48 V 72 H 72 V 48 a 32.036,32.036 0 0 1 32,-32 h 304 a 32.036,32.036 0 0 1 32,32 v 184 a 32.036,32.036 0 0 1 -32,32 H 297.973 l 12.444,56 H 328 v 16 H 184 v -16 h 17.583 l 12.444,-56 H 104 A 32.036,32.036 0 0 1 72,232 Z m 209.583,32 h -51.166 l -12.444,56 h 76.054 z M 88,216 v 16 a 16.019,16.019 0 0 0 16,16 h 304 a 16.019,16.019 0 0 0 16,-16 V 216 Z M 120,48 h -16 v 16 h 16 z m -16,112 h 16 V 80 h -16 z"
         id="path1070" />
    </g>
    <text
       xml:space="preserve"
       style="font-size:2.82222px;line-height:1.25;font-family:sans-serif;stroke-width:0.264583"
       x="187.34625"
       y="68.09388"
       id="text1078"><tspan
         sodipodi:role="line"
         id="tspan1074"
         x="187.34625"
         y="68.09388"
         style="font-size:2.82222px;stroke-width:0.264583">Windows</tspan><tspan
         sodipodi:role="line"
         x="187.34625"
         y="71.621658"
         style="font-size:2.82222px;stroke-width:0.264583"
         id="tspan1076" /></text>
    <text
       xml:space="preserve"
       style="font-size:2.82222px;line-height:1.25;font-family:sans-serif;stroke-width:0.264583"
       x="185.07387"
       y="71.815964"
       id="text1082"><tspan
         sodipodi:role="line"
         x="185.07387"
         y="71.815964"
         style="font-size:2.82222px;stroke-width:0.264583"
         id="tspan1080">192.168.n.1</tspan></text>
    <path
       style="fill:none;stroke:#000000;stroke-width:0.171;stroke-linecap:butt;stroke-linejoin:miter;stroke-miterlimit:4;stroke-dasharray:none;stroke-opacity:1"
       d="m 130.11575,11.779458 v 7"
       id="path1907" />
    <path
       style="fill:none;stroke:#000000;stroke-width:0.171;stroke-linecap:butt;stroke-linejoin:miter;stroke-miterlimit:4;stroke-dasharray:none;stroke-opacity:1"
       d="m 170.05874,11.779458 v 7"
       id="path1909" />
    <g
       id="Filled_outline"
       data-name="Filled outline"
       transform="matrix(0.02083333,0,0,0.02083333,34.611409,22.697376)">
      <rect
         fill="#348ed8"
         height="248"
         rx="32"
         width="464"
         x="24"
         y="192"
         id="rect2" />
      <g
         fill="#2d7dbe"
         id="g14">
        <path
           d="M 422.111,472 H 89.889 A 16,16 0 0 1 75.578,463.155 L 64,440 h 384 l -11.578,23.155 A 16,16 0 0 1 422.111,472 Z"
           id="path4" />
        <path
           d="M 216,192 H 176 L 168.548,35.513 A 10.991,10.991 0 0 1 179.526,24 h 1.146 a 10.99,10.99 0 0 1 6.1,1.846 l 16.642,11.1 a 10.991,10.991 0 0 1 4.879,8.567 z"
           id="path6" />
        <path
           d="M 112,192 H 72 L 49.792,36.545 A 10.991,10.991 0 0 1 60.672,24 a 10.99,10.99 0 0 1 6.1,1.846 l 17.22,11.482 a 10.988,10.988 0 0 1 4.759,7.43 z"
           id="path8" />
        <path
           d="m 296,192 h 40 L 343.452,35.513 A 10.991,10.991 0 0 0 332.474,24 h -1.146 a 10.99,10.99 0 0 0 -6.1,1.846 l -16.642,11.1 a 10.991,10.991 0 0 0 -4.879,8.567 z"
           id="path10" />
        <path
           d="m 400,192 h 40 L 462.208,36.545 A 10.991,10.991 0 0 0 451.328,24 a 10.99,10.99 0 0 0 -6.1,1.846 l -17.22,11.482 a 10.988,10.988 0 0 0 -4.759,7.43 z"
           id="path12" />
      </g>
      <path
         d="M 496,368 V 224 a 40.045,40.045 0 0 0 -40,-40 h -6.775 l 20.9,-146.324 A 18.991,18.991 0 0 0 440.791,19.189 L 423.57,30.672 a 19.038,19.038 0 0 0 -8.223,12.839 L 393.164,184 H 344.39 L 351.443,35.894 A 18.991,18.991 0 0 0 332.474,16 h -1.146 a 18.934,18.934 0 0 0 -10.534,3.189 l -16.644,11.1 a 19.082,19.082 0 0 0 -8.429,14.8 L 288.41,184 H 223.59 L 216.279,45.087 a 19.083,19.083 0 0 0 -8.43,-14.8 L 191.206,19.189 A 18.934,18.934 0 0 0 180.672,16 h -1.146 A 18.991,18.991 0 0 0 160.557,35.9 L 167.61,184 H 118.836 L 96.653,43.512 A 19.038,19.038 0 0 0 88.43,30.672 L 71.206,19.189 A 18.991,18.991 0 0 0 41.872,37.676 l 3.922,27.455 15.84,-2.262 -3.922,-27.457 a 2.99,2.99 0 0 1 4.619,-2.91 l 17.224,11.482 a 3,3 0 0 1 1.294,2.023 L 102.638,184 h -23.7 L 63.689,77.258 47.85,79.521 62.775,184 H 56 a 40.045,40.045 0 0 0 -40,40 v 184 a 40.045,40.045 0 0 0 40,40 h 3.056 l 9.367,18.732 A 23.867,23.867 0 0 0 89.889,480 h 332.222 a 23.868,23.868 0 0 0 21.466,-13.267 L 452.944,448 H 456 a 40.045,40.045 0 0 0 40,-40 v -23 h -16 v 23 a 24.028,24.028 0 0 1 -24,24 H 56 A 24.028,24.028 0 0 1 32,408 V 224 a 24.028,24.028 0 0 1 24,-24 h 400 a 24.028,24.028 0 0 1 24,24 v 144 z m -60.944,80 -5.789,11.578 A 7.958,7.958 0 0 1 422.111,464 H 89.889 a 7.957,7.957 0 0 1 -7.156,-4.423 L 76.944,448 Z M 183.628,184 176.539,35.134 a 2.978,2.978 0 0 1 0.819,-2.2 4.409,4.409 0 0 1 4.973,-0.429 L 198.973,43.6 a 3.007,3.007 0 0 1 1.328,2.333 L 207.567,184 Z m 120.805,0 7.267,-138.071 a 3,3 0 0 1 1.327,-2.332 L 329.669,32.5 a 4.347,4.347 0 0 1 4.969,0.425 2.971,2.971 0 0 1 0.823,2.206 L 328.372,184 Z m 104.929,0 21.789,-137.994 a 3,3 0 0 1 1.294,-2.022 L 449.669,32.5 a 2.99,2.99 0 0 1 4.619,2.911 L 433.062,184 Z M 248,416 v -16 h 16 v 16 z m -40,-16 h 16 v 16 h -16 z m -40,0 h 16 v 16 h -16 z m -40,16 v -16 h 16 v 16 z m 240,0 v -16 h 16 v 16 z m -40,-16 h 16 v 16 h -16 z m -40,0 h 16 v 16 H 288 Z M 64,240 H 48 V 224 H 64 Z M 48,256 H 64 V 360 H 48 Z"
         id="path16" />
    </g>
    <text
       xml:space="preserve"
       style="font-size:2.82222px;line-height:1.25;font-family:sans-serif;stroke-width:0.264583"
       x="29.545385"
       y="39.622021"
       id="text910"><tspan
         sodipodi:role="line"
         x="29.545385"
         y="39.622021"
         style="font-size:2.82222px;stroke-width:0.264583"
         id="tspan908">192.168.8.254</tspan></text>
    <text
       xml:space="preserve"
       style="font-size:2.82222px;line-height:1.25;font-family:sans-serif;stroke-width:0.264583"
       x="34.924553"
       y="35.89994"
       id="text914"><tspan
         sodipodi:role="line"
         id="tspan912"
         x="34.924553"
         y="35.89994"
         style="font-size:2.82222px;stroke-width:0.264583">Debian</tspan></text>
    <text
       xml:space="preserve"
       style="font-size:2.82222px;line-height:1.25;font-family:sans-serif;stroke-width:0.264583"
       x="33.153774"
       y="21.932407"
       id="text918"><tspan
         sodipodi:role="line"
         x="33.153774"
         y="21.932407"
         style="font-size:2.82222px;stroke-width:0.264583"
         id="tspan920">10.1.37.8</tspan></text>
    <path
       style="fill:none;stroke:#000000;stroke-width:0.171;stroke-linecap:butt;stroke-linejoin:miter;stroke-miterlimit:4;stroke-dasharray:none;stroke-opacity:1"
       d="m 39.944741,11.779458 v 7"
       id="path1911" />
    <path
       style="fill:none;stroke:#000000;stroke-width:0.171;stroke-linecap:butt;stroke-linejoin:miter;stroke-miterlimit:4;stroke-dasharray:none;stroke-opacity:1"
       d="m 39.944741,40.720318 v 7"
       id="path2041" />
    <path
       style="fill:none;stroke:#000000;stroke-width:0.171;stroke-linecap:butt;stroke-linejoin:miter;stroke-miterlimit:4;stroke-dasharray:none;stroke-opacity:1"
       d="m 170.05875,40.720318 v 7"
       id="path2043" />
    <path
       style="fill:none;stroke:#000000;stroke-width:0.171;stroke-linecap:butt;stroke-linejoin:miter;stroke-miterlimit:4;stroke-dasharray:none;stroke-opacity:1"
       d="m 16.380242,47.891318 v 7"
       id="path2045" />
    <path
       style="fill:none;stroke:#000000;stroke-width:0.171;stroke-linecap:butt;stroke-linejoin:miter;stroke-miterlimit:4;stroke-dasharray:none;stroke-opacity:1"
       d="m 63.50924,47.891318 v 7"
       id="path2047" />
    <path
       style="fill:none;stroke:#000000;stroke-width:0.171;stroke-linecap:butt;stroke-linejoin:miter;stroke-miterlimit:4;stroke-dasharray:none;stroke-opacity:1"
       d="m 146.49429,47.891318 v 7"
       id="path2049" />
    <path
       style="fill:none;stroke:#000000;stroke-width:0.171;stroke-linecap:butt;stroke-linejoin:miter;stroke-miterlimit:4;stroke-dasharray:none;stroke-opacity:1"
       d="m 193.62321,47.891318 v 7"
       id="path2051" />
    <text
       xml:space="preserve"
       id="text991"
       style="line-height:1.25;font-family:sans-serif;font-size:3.88055556px;white-space:pre;shape-inside:url(#rect993);" />
    <text
       xml:space="preserve"
       id="text997"
       style="line-height:1.25;font-family:sans-serif;font-size:3.88055556px;white-space:pre;shape-inside:url(#rect999);" />
    <text
       xml:space="preserve"
       id="text1003"
       style="line-height:1.25;font-family:sans-serif;font-size:2.82222222px;white-space:pre;shape-inside:url(#rect1005);" />
  </g>
</svg>
