<?xml version="1.0" encoding="UTF-8" standalone="no"?>
<svg
   xmlns:dc="http://purl.org/dc/elements/1.1/"
   xmlns:cc="http://creativecommons.org/ns#"
   xmlns:rdf="http://www.w3.org/1999/02/22-rdf-syntax-ns#"
   xmlns:svg="http://www.w3.org/2000/svg"
   xmlns="http://www.w3.org/2000/svg"
   xmlns:sodipodi="http://sodipodi.sourceforge.net/DTD/sodipodi-0.dtd"
   xmlns:inkscape="http://www.inkscape.org/namespaces/inkscape"
   width="210mm"
   height="95mm"
   viewBox="0 0 210 95"
   version="1.1"
   id="svg8"
   inkscape:version="1.0.1 (3bc2e813f5, 2020-09-07)"
   sodipodi:docname="01.svg">
  <defs
     id="defs2" />
  <sodipodi:namedview
     id="base"
     pagecolor="#ffffff"
     bordercolor="#666666"
     borderopacity="1.0"
     inkscape:pageopacity="0.0"
     inkscape:pageshadow="2"
     inkscape:zoom="1.32"
     inkscape:cx="404.65554"
     inkscape:cy="162.53974"
     inkscape:document-units="mm"
     inkscape:current-layer="layer1"
     showgrid="false"
     inkscape:window-width="1920"
     inkscape:window-height="1017"
     inkscape:window-x="-8"
     inkscape:window-y="-8"
     inkscape:window-maximized="1"
     showborder="false"
     units="mm"
     inkscape:document-rotation="0">
    <inkscape:grid
       type="xygrid"
       id="grid33" />
  </sodipodi:namedview>
  <metadata
     id="metadata5">
    <rdf:RDF>
      <cc:Work
         rdf:about="">
        <dc:format>image/svg+xml</dc:format>
        <dc:type
           rdf:resource="http://purl.org/dc/dcmitype/StillImage" />
        <dc:title />
      </cc:Work>
    </rdf:RDF>
  </metadata>
  <g
     inkscape:label="Capa 1"
     inkscape:groupmode="layer"
     id="layer1">
    <path
       style="fill:none;stroke:#000000;stroke-width:0.171;stroke-linecap:butt;stroke-linejoin:miter;stroke-miterlimit:4;stroke-dasharray:none;stroke-opacity:1"
       d="M 55.213642,10.458613 H 175.21363 Z"
       id="path380" />
    <path
       style="fill:none;stroke:#000000;stroke-width:0.171;stroke-linecap:butt;stroke-linejoin:miter;stroke-miterlimit:4;stroke-dasharray:none;stroke-opacity:1"
       d="m 84.786091,10.543883 v 8.999975 z"
       id="path366" />
    <path
       style="fill:none;stroke:#000000;stroke-width:0.171;stroke-linecap:butt;stroke-linejoin:miter;stroke-miterlimit:4;stroke-dasharray:none;stroke-opacity:1"
       d="m 145.64058,10.544113 v 8.999975 z"
       id="path362" />
    <path
       style="fill:none;stroke:#000000;stroke-width:0.171;stroke-linecap:butt;stroke-linejoin:miter;stroke-miterlimit:4;stroke-dasharray:none;stroke-opacity:1"
       d="m 84.786365,48.238422 v 9 z"
       id="path378" />
    <path
       style="fill:none;stroke:#000000;stroke-width:0.171;stroke-linecap:butt;stroke-linejoin:miter;stroke-miterlimit:4;stroke-dasharray:none;stroke-opacity:1"
       d="M 34.786369,57.323922 H 134.78636 Z"
       id="path376" />
    <path
       style="fill:none;stroke:#000000;stroke-width:0.171;stroke-linecap:butt;stroke-linejoin:miter;stroke-miterlimit:4;stroke-dasharray:none;stroke-opacity:1"
       d="m 47.571877,57.409422 v 8.999975 z"
       id="path374" />
    <path
       style="fill:none;stroke:#000000;stroke-width:0.171;stroke-linecap:butt;stroke-linejoin:miter;stroke-miterlimit:4;stroke-dasharray:none;stroke-opacity:1"
       d="m 122.00078,57.409422 v 8.999975 z"
       id="path370" />
    <g
       id="Filled_outline"
       data-name="Filled outline"
       transform="matrix(0.02916667,0,0,0.02916667,114.53411,65.94273)">
      <rect
         fill="#85ccd5"
         height="200"
         rx="16"
         width="464"
         x="24"
         y="288"
         id="rect2" />
      <rect
         fill="#4db6e4"
         height="232"
         rx="24"
         width="352"
         x="80"
         y="24"
         id="rect4" />
      <path
         d="m 80,184 v 48 a 24,24 0 0 0 24,24 h 304 a 24,24 0 0 0 24,-24 V 56 Z"
         fill="#4aafdb"
         id="path6" />
      <path
         d="M 408,256 H 104 A 24,24 0 0 1 80,232 v -24 h 352 v 24 a 24,24 0 0 1 -24,24 z"
         fill="#dfdfdd"
         id="path8" />
      <path
         d="m 304,328 h -96 l 10.67,-48 5.33,-24 h 64 l 5.33,24 z"
         fill="#d5d5d3"
         id="path10" />
      <path
         d="m 184,320 h 144 v 16 H 184 Z"
         fill="#dfdfdd"
         id="path12" />
      <path
         d="M 293.33,280 H 218.67 L 224,256 h 64 z"
         fill="#c6c6c4"
         id="path14" />
      <path
         d="m 104,360 h 256 v 96 H 104 Z"
         fill="#dfdfdd"
         id="path16" />
      <rect
         fill="#dfdfdd"
         height="96"
         rx="32"
         width="64"
         x="392"
         y="360"
         id="rect18" />
      <path
         d="m 112,400 v 48 H 352 V 368 H 112 v 16 H 96 v -24 a 8,8 0 0 1 8,-8 h 256 a 8,8 0 0 1 8,8 v 96 a 8,8 0 0 1 -8,8 H 104 a 8,8 0 0 1 -8,-8 v -56 z m 48,32 H 304 V 416 H 160 Z m -32,0 h 16 v -16 h -16 z m 192,0 h 16 V 416 H 320 Z M 144,384 h -16 v 16 h 16 z m 16,0 v 16 h 16 v -16 z m 32,0 v 16 h 16 v -16 z m 32,0 v 16 h 16 v -16 z m 32,0 v 16 h 16 v -16 z m 48,0 h -16 v 16 h 16 z m 32,0 h -16 v 16 h 16 z m 88,80 a 40.045,40.045 0 0 1 -40,-40 v -32 a 40,40 0 0 1 80,0 v 32 a 40.045,40.045 0 0 1 -40,40 z m 0,-16 a 24.027,24.027 0 0 0 24,-24 v -32 a 24,24 0 0 0 -48,0 v 32 a 24.027,24.027 0 0 0 24,24 z m 56,24 a 8.009,8.009 0 0 1 -8,8 H 40 a 8.009,8.009 0 0 1 -8,-8 V 304 a 8.009,8.009 0 0 1 8,-8 H 192 V 280 H 40 a 24.028,24.028 0 0 0 -24,24 v 168 a 24.028,24.028 0 0 0 24,24 h 432 a 24.028,24.028 0 0 0 24,-24 V 456 H 480 Z M 472,280 H 320 v 16 h 152 a 8.009,8.009 0 0 1 8,8 v 136 h 16 V 304 A 24.028,24.028 0 0 0 472,280 Z M 72,232 V 88 H 88 V 200 H 424 V 48 A 16.019,16.019 0 0 0 408,32 H 104 A 16.019,16.019 0 0 0 88,48 V 72 H 72 V 48 a 32.036,32.036 0 0 1 32,-32 h 304 a 32.036,32.036 0 0 1 32,32 v 184 a 32.036,32.036 0 0 1 -32,32 H 297.973 l 12.444,56 H 328 v 16 H 184 v -16 h 17.583 l 12.444,-56 H 104 A 32.036,32.036 0 0 1 72,232 Z m 209.583,32 h -51.166 l -12.444,56 h 76.054 z M 88,216 v 16 a 16.019,16.019 0 0 0 16,16 h 304 a 16.019,16.019 0 0 0 16,-16 V 216 Z M 120,48 h -16 v 16 h 16 z m -16,112 h 16 V 80 h -16 z"
         id="path20" />
    </g>
    <g
       aria-label="Servidor Debian"
       id="text4727-0"
       style="font-style:normal;font-weight:normal;font-size:10.5833px;line-height:0.7;font-family:sans-serif;letter-spacing:0px;word-spacing:0px;fill:#000000;fill-opacity:1;stroke:none;stroke-width:0.264583"
       transform="translate(87.144238,51.29373)">
      <text
         xml:space="preserve"
         style="font-style:normal;font-weight:normal;font-size:3.88056px;line-height:1.25;font-family:sans-serif;fill:#000000;fill-opacity:1;stroke:none;stroke-width:0.0700042"
         x="27.953766"
         y="33.122318"
         id="text259"><tspan
           sodipodi:role="line"
           x="27.953766"
           y="33.122318"
           style="font-size:3.88056px;stroke-width:0.0700042"
           id="tspan261">Debian</tspan></text>
    </g>
    <g
       id="g286"
       data-name="Filled outline"
       transform="matrix(0.02916667,0,0,0.02916667,40.105209,65.94273)">
      <rect
         fill="#85ccd5"
         height="200"
         rx="16"
         width="464"
         x="24"
         y="288"
         id="rect265" />
      <rect
         fill="#4db6e4"
         height="232"
         rx="24"
         width="352"
         x="80"
         y="24"
         id="rect267" />
      <path
         d="m 80,184 v 48 a 24,24 0 0 0 24,24 h 304 a 24,24 0 0 0 24,-24 V 56 Z"
         fill="#4aafdb"
         id="path269" />
      <path
         d="M 408,256 H 104 A 24,24 0 0 1 80,232 v -24 h 352 v 24 a 24,24 0 0 1 -24,24 z"
         fill="#dfdfdd"
         id="path272" />
      <path
         d="m 304,328 h -96 l 10.67,-48 5.33,-24 h 64 l 5.33,24 z"
         fill="#d5d5d3"
         id="path274" />
      <path
         d="m 184,320 h 144 v 16 H 184 Z"
         fill="#dfdfdd"
         id="path276" />
      <path
         d="M 293.33,280 H 218.67 L 224,256 h 64 z"
         fill="#c6c6c4"
         id="path278" />
      <path
         d="m 104,360 h 256 v 96 H 104 Z"
         fill="#dfdfdd"
         id="path280" />
      <rect
         fill="#dfdfdd"
         height="96"
         rx="32"
         width="64"
         x="392"
         y="360"
         id="rect282" />
      <path
         d="m 112,400 v 48 H 352 V 368 H 112 v 16 H 96 v -24 a 8,8 0 0 1 8,-8 h 256 a 8,8 0 0 1 8,8 v 96 a 8,8 0 0 1 -8,8 H 104 a 8,8 0 0 1 -8,-8 v -56 z m 48,32 H 304 V 416 H 160 Z m -32,0 h 16 v -16 h -16 z m 192,0 h 16 V 416 H 320 Z M 144,384 h -16 v 16 h 16 z m 16,0 v 16 h 16 v -16 z m 32,0 v 16 h 16 v -16 z m 32,0 v 16 h 16 v -16 z m 32,0 v 16 h 16 v -16 z m 48,0 h -16 v 16 h 16 z m 32,0 h -16 v 16 h 16 z m 88,80 a 40.045,40.045 0 0 1 -40,-40 v -32 a 40,40 0 0 1 80,0 v 32 a 40.045,40.045 0 0 1 -40,40 z m 0,-16 a 24.027,24.027 0 0 0 24,-24 v -32 a 24,24 0 0 0 -48,0 v 32 a 24.027,24.027 0 0 0 24,24 z m 56,24 a 8.009,8.009 0 0 1 -8,8 H 40 a 8.009,8.009 0 0 1 -8,-8 V 304 a 8.009,8.009 0 0 1 8,-8 H 192 V 280 H 40 a 24.028,24.028 0 0 0 -24,24 v 168 a 24.028,24.028 0 0 0 24,24 h 432 a 24.028,24.028 0 0 0 24,-24 V 456 H 480 Z M 472,280 H 320 v 16 h 152 a 8.009,8.009 0 0 1 8,8 v 136 h 16 V 304 A 24.028,24.028 0 0 0 472,280 Z M 72,232 V 88 H 88 V 200 H 424 V 48 A 16.019,16.019 0 0 0 408,32 H 104 A 16.019,16.019 0 0 0 88,48 V 72 H 72 V 48 a 32.036,32.036 0 0 1 32,-32 h 304 a 32.036,32.036 0 0 1 32,32 v 184 a 32.036,32.036 0 0 1 -32,32 H 297.973 l 12.444,56 H 328 v 16 H 184 v -16 h 17.583 l 12.444,-56 H 104 A 32.036,32.036 0 0 1 72,232 Z m 209.583,32 h -51.166 l -12.444,56 h 76.054 z M 88,216 v 16 a 16.019,16.019 0 0 0 16,16 h 304 a 16.019,16.019 0 0 0 16,-16 V 216 Z M 120,48 h -16 v 16 h 16 z m -16,112 h 16 V 80 h -16 z"
         id="path284" />
    </g>
    <g
       aria-label="Servidor Debian"
       id="g326"
       style="font-style:normal;font-weight:normal;font-size:10.5833px;line-height:0.7;font-family:sans-serif;letter-spacing:0px;word-spacing:0px;fill:#000000;fill-opacity:1;stroke:none;stroke-width:0.264583"
       transform="translate(10.987276,51.29373)">
      <text
         xml:space="preserve"
         style="font-style:normal;font-weight:normal;font-size:3.88056px;line-height:1.25;font-family:sans-serif;fill:#000000;fill-opacity:1;stroke:none;stroke-width:0.0700042"
         x="27.953766"
         y="33.122318"
         id="text324"><tspan
           sodipodi:role="line"
           x="27.953766"
           y="33.122318"
           style="font-size:3.88056px;stroke-width:0.0700042"
           id="tspan328">Windows</tspan></text>
    </g>
    <g
       id="g352"
       data-name="Filled outline"
       transform="matrix(0.02916667,0,0,0.02916667,138.17391,19.077421)">
      <rect
         fill="#85ccd5"
         height="200"
         rx="16"
         width="464"
         x="24"
         y="288"
         id="rect332" />
      <rect
         fill="#4db6e4"
         height="232"
         rx="24"
         width="352"
         x="80"
         y="24"
         id="rect334" />
      <path
         d="m 80,184 v 48 a 24,24 0 0 0 24,24 h 304 a 24,24 0 0 0 24,-24 V 56 Z"
         fill="#4aafdb"
         id="path336" />
      <path
         d="M 408,256 H 104 A 24,24 0 0 1 80,232 v -24 h 352 v 24 a 24,24 0 0 1 -24,24 z"
         fill="#dfdfdd"
         id="path338" />
      <path
         d="m 304,328 h -96 l 10.67,-48 5.33,-24 h 64 l 5.33,24 z"
         fill="#d5d5d3"
         id="path340" />
      <path
         d="m 184,320 h 144 v 16 H 184 Z"
         fill="#dfdfdd"
         id="path342" />
      <path
         d="M 293.33,280 H 218.67 L 224,256 h 64 z"
         fill="#c6c6c4"
         id="path344" />
      <path
         d="m 104,360 h 256 v 96 H 104 Z"
         fill="#dfdfdd"
         id="path346" />
      <rect
         fill="#dfdfdd"
         height="96"
         rx="32"
         width="64"
         x="392"
         y="360"
         id="rect348" />
      <path
         d="m 112,400 v 48 H 352 V 368 H 112 v 16 H 96 v -24 a 8,8 0 0 1 8,-8 h 256 a 8,8 0 0 1 8,8 v 96 a 8,8 0 0 1 -8,8 H 104 a 8,8 0 0 1 -8,-8 v -56 z m 48,32 H 304 V 416 H 160 Z m -32,0 h 16 v -16 h -16 z m 192,0 h 16 V 416 H 320 Z M 144,384 h -16 v 16 h 16 z m 16,0 v 16 h 16 v -16 z m 32,0 v 16 h 16 v -16 z m 32,0 v 16 h 16 v -16 z m 32,0 v 16 h 16 v -16 z m 48,0 h -16 v 16 h 16 z m 32,0 h -16 v 16 h 16 z m 88,80 a 40.045,40.045 0 0 1 -40,-40 v -32 a 40,40 0 0 1 80,0 v 32 a 40.045,40.045 0 0 1 -40,40 z m 0,-16 a 24.027,24.027 0 0 0 24,-24 v -32 a 24,24 0 0 0 -48,0 v 32 a 24.027,24.027 0 0 0 24,24 z m 56,24 a 8.009,8.009 0 0 1 -8,8 H 40 a 8.009,8.009 0 0 1 -8,-8 V 304 a 8.009,8.009 0 0 1 8,-8 H 192 V 280 H 40 a 24.028,24.028 0 0 0 -24,24 v 168 a 24.028,24.028 0 0 0 24,24 h 432 a 24.028,24.028 0 0 0 24,-24 V 456 H 480 Z M 472,280 H 320 v 16 h 152 a 8.009,8.009 0 0 1 8,8 v 136 h 16 V 304 A 24.028,24.028 0 0 0 472,280 Z M 72,232 V 88 H 88 V 200 H 424 V 48 A 16.019,16.019 0 0 0 408,32 H 104 A 16.019,16.019 0 0 0 88,48 V 72 H 72 V 48 a 32.036,32.036 0 0 1 32,-32 h 304 a 32.036,32.036 0 0 1 32,32 v 184 a 32.036,32.036 0 0 1 -32,32 H 297.973 l 12.444,56 H 328 v 16 H 184 v -16 h 17.583 l 12.444,-56 H 104 A 32.036,32.036 0 0 1 72,232 Z m 209.583,32 h -51.166 l -12.444,56 h 76.054 z M 88,216 v 16 a 16.019,16.019 0 0 0 16,16 h 304 a 16.019,16.019 0 0 0 16,-16 V 216 Z M 120,48 h -16 v 16 h 16 z m -16,112 h 16 V 80 h -16 z"
         id="path350" />
    </g>
    <g
       id="Filled_outline-4"
       data-name="Filled outline"
       transform="matrix(0.02916667,0,0,0.02916667,77.319423,24.128912)">
      <rect
         fill="#3ba5d3"
         height="376"
         rx="24"
         width="224"
         x="144"
         y="24"
         id="rect2-3" />
      <rect
         fill="#4db6e4"
         height="120"
         rx="24"
         width="224"
         x="144"
         y="24"
         id="rect4-1" />
      <path
         d="M 176,176 H 336 V 368 H 176 Z"
         fill="#348ed8"
         id="path6-1" />
      <path
         d="M 336,176 H 176 v 192 h 16 V 192 h 144 z"
         fill="#3289d1"
         id="path8-8" />
      <circle
         cx="256"
         cy="464"
         fill="#459ce5"
         r="24"
         id="circle10" />
      <path
         d="M 496,456 H 286.987 A 32.117,32.117 0 0 0 264,433.013 V 408 h 80 a 32.036,32.036 0 0 0 32,-32 v -16 h -16 v 16 a 16.019,16.019 0 0 1 -16,16 H 168 A 16.019,16.019 0 0 1 152,376 V 176 h -16 v 200 a 32.036,32.036 0 0 0 32,32 h 80 v 25.013 A 32.117,32.117 0 0 0 225.013,456 H 16 v 16 h 209.013 a 32,32 0 0 0 61.974,0 H 496 Z m -240,24 a 16,16 0 1 1 16,-16 16.019,16.019 0 0 1 -16,16 z M 152,147.7 a 31.793,31.793 0 0 0 16,4.3 h 176 a 31.793,31.793 0 0 0 16,-4.305 V 344 h 16 V 48 A 32.036,32.036 0 0 0 344,16 H 168 a 32.036,32.036 0 0 0 -32,32 v 112 h 16 z M 152,48 a 16.019,16.019 0 0 1 16,-16 h 176 a 16.019,16.019 0 0 1 16,16 v 72 a 16.019,16.019 0 0 1 -16,16 H 168 a 16.019,16.019 0 0 1 -16,-16 z m 24,120 a 8,8 0 0 0 -8,8 v 192 a 8,8 0 0 0 8,8 h 160 a 8,8 0 0 0 8,-8 V 176 a 8,8 0 0 0 -8,-8 z m 152,16 v 48 H 184 v -48 z m 0,64 v 48 H 184 V 248 Z M 184,360 v -48 h 144 v 48 z m 32,-144 h -16 v -16 h 16 z m 32,0 h -16 v -16 h 16 z m 32,0 h -16 v -16 h 16 z m 32,0 h -16 v -16 h 16 z m -112,64 v -16 h 16 v 16 z m 48,0 h -16 v -16 h 16 z m 32,0 h -16 v -16 h 16 z m 32,0 h -16 v -16 h 16 z m -112,48 h 16 v 16 h -16 z m 32,0 h 16 v 16 h -16 z m 32,0 h 16 v 16 h -16 z m 32,0 h 16 v 16 H 296 Z M 184,64 H 168 V 48 h 16 z m 0,56 H 168 V 80 h 16 z"
         id="path12-7" />
    </g>
    <g
       aria-label="Servidor Debian"
       id="g388"
       style="font-style:normal;font-weight:normal;font-size:10.5833px;line-height:0.7;font-family:sans-serif;letter-spacing:0px;word-spacing:0px;fill:#000000;fill-opacity:1;stroke:none;stroke-width:0.264583"
       transform="translate(49.929552,9.4802653)">
      <text
         xml:space="preserve"
         style="font-style:normal;font-weight:normal;font-size:3.88056px;line-height:1.25;font-family:sans-serif;fill:#000000;fill-opacity:1;stroke:none;stroke-width:0.0700042"
         x="27.953766"
         y="33.122318"
         id="text386"><tspan
           sodipodi:role="line"
           x="27.953766"
           y="33.122318"
           style="font-size:3.88056px;stroke-width:0.0700042"
           id="tspan384">Debian</tspan></text>
    </g>
    <g
       aria-label="Servidor Debian"
       id="g173"
       style="font-style:normal;font-weight:normal;font-size:10.5833px;line-height:0.7;font-family:sans-serif;letter-spacing:0px;word-spacing:0px;fill:#000000;fill-opacity:1;stroke:none;stroke-width:0.264583"
       transform="translate(109.54294,4.5837941)">
      <text
         xml:space="preserve"
         style="font-style:normal;font-weight:normal;font-size:3.88056px;line-height:1.25;font-family:sans-serif;fill:#000000;fill-opacity:1;stroke:none;stroke-width:0.0700042"
         x="27.953766"
         y="33.122318"
         id="text171"><tspan
           sodipodi:role="line"
           x="27.953766"
           y="33.122318"
           style="font-size:3.88056px;stroke-width:0.0700042"
           id="tspan175">Anfitrión</tspan></text>
    </g>
    <g
       aria-label="Servidor Debian"
       id="g183"
       style="font-style:normal;font-weight:normal;font-size:10.5833px;line-height:0.7;font-family:sans-serif;letter-spacing:0px;word-spacing:0px;fill:#000000;fill-opacity:1;stroke:none;stroke-width:0.264583"
       transform="translate(110.59266,9.1745596)">
      <text
         xml:space="preserve"
         style="font-style:normal;font-weight:normal;font-size:3.88056px;line-height:1.25;font-family:sans-serif;fill:#000000;fill-opacity:1;stroke:none;stroke-width:0.0700042"
         x="27.953766"
         y="33.122318"
         id="text181"><tspan
           sodipodi:role="line"
           x="27.953766"
           y="33.122318"
           style="font-size:3.88056px;stroke-width:0.0700042"
           id="tspan179">Ubuntu</tspan></text>
    </g>
    <g
       aria-label="Servidor Debian"
       id="g169"
       style="font-style:normal;font-weight:normal;font-size:10.5833px;line-height:0.7;font-family:sans-serif;letter-spacing:0px;word-spacing:0px;fill:#000000;fill-opacity:1;stroke:none;stroke-width:0.264583"
       transform="translate(7.8580066,55.816283)">
      <text
         xml:space="preserve"
         style="font-style:normal;font-weight:normal;font-size:3.88056px;line-height:1.25;font-family:sans-serif;fill:#000000;fill-opacity:1;stroke:none;stroke-width:0.0700042"
         x="27.953766"
         y="33.122318"
         id="text167"><tspan
           sodipodi:role="line"
           x="27.953766"
           y="33.122318"
           style="font-size:3.88056px;stroke-width:0.0700042"
           id="tspan165">192.168.8.1</tspan></text>
    </g>
    <g
       aria-label="Servidor Debian"
       id="g175"
       style="font-style:normal;font-weight:normal;font-size:10.5833px;line-height:0.7;font-family:sans-serif;letter-spacing:0px;word-spacing:0px;fill:#000000;fill-opacity:1;stroke:none;stroke-width:0.264583"
       transform="translate(82.302065,55.816283)">
      <text
         xml:space="preserve"
         style="font-style:normal;font-weight:normal;font-size:3.88056px;line-height:1.25;font-family:sans-serif;fill:#000000;fill-opacity:1;stroke:none;stroke-width:0.0700042"
         x="27.953766"
         y="33.122318"
         id="text173"><tspan
           sodipodi:role="line"
           x="27.953766"
           y="33.122318"
           style="font-size:3.88056px;stroke-width:0.0700042"
           id="tspan177">192.168.8.2</tspan></text>
    </g>
    <g
       aria-label="Servidor Debian"
       id="g186"
       style="font-style:normal;font-weight:normal;font-size:10.5833px;line-height:0.7;font-family:sans-serif;letter-spacing:0px;word-spacing:0px;fill:#000000;fill-opacity:1;stroke:none;stroke-width:0.264583"
       transform="translate(30.07701,28.822921)">
      <text
         xml:space="preserve"
         style="font-style:normal;font-weight:normal;font-size:3.88056px;line-height:1.25;font-family:sans-serif;fill:#000000;fill-opacity:1;stroke:none;stroke-width:0.0700042"
         x="27.953766"
         y="33.122318"
         id="text184"><tspan
           sodipodi:role="line"
           x="27.953766"
           y="33.122318"
           style="font-size:3.88056px;stroke-width:0.0700042"
           id="tspan188">Red interna 192.168.8.0/24</tspan></text>
    </g>
    <g
       aria-label="Servidor Debian"
       id="g196"
       style="font-style:normal;font-weight:normal;font-size:10.5833px;line-height:0.7;font-family:sans-serif;letter-spacing:0px;word-spacing:0px;fill:#000000;fill-opacity:1;stroke:none;stroke-width:0.264583"
       transform="translate(42.53318,14.002819)">
      <text
         xml:space="preserve"
         style="font-style:normal;font-weight:normal;font-size:3.88056px;line-height:1.25;font-family:sans-serif;fill:#000000;fill-opacity:1;stroke:none;stroke-width:0.0700042"
         x="27.953766"
         y="33.122318"
         id="text194"><tspan
           sodipodi:role="line"
           x="27.953766"
           y="33.122318"
           style="font-size:3.88056px;stroke-width:0.0700042"
           id="tspan192">192.168.8.254</tspan></text>
    </g>
    <g
       aria-label="Servidor Debian"
       id="g202"
       style="font-style:normal;font-weight:normal;font-size:10.5833px;line-height:0.7;font-family:sans-serif;letter-spacing:0px;word-spacing:0px;fill:#000000;fill-opacity:1;stroke:none;stroke-width:0.264583"
       transform="translate(47.494728,-9.6400237)">
      <text
         xml:space="preserve"
         style="font-style:normal;font-weight:normal;font-size:3.88056px;line-height:1.25;font-family:sans-serif;fill:#000000;fill-opacity:1;stroke:none;stroke-width:0.0700042"
         x="27.953766"
         y="33.122318"
         id="text200"><tspan
           sodipodi:role="line"
           x="27.953766"
           y="33.122318"
           style="font-size:3.88056px;stroke-width:0.0700042"
           id="tspan198">10.1.37.8</tspan></text>
    </g>
    <g
       aria-label="Servidor Debian"
       id="g208"
       style="font-style:normal;font-weight:normal;font-size:10.5833px;line-height:0.7;font-family:sans-serif;letter-spacing:0px;word-spacing:0px;fill:#000000;fill-opacity:1;stroke:none;stroke-width:0.264583"
       transform="translate(63.398595,-24.167552)">
      <text
         xml:space="preserve"
         style="font-style:normal;font-weight:normal;font-size:3.88056px;line-height:1.25;font-family:sans-serif;fill:#000000;fill-opacity:1;stroke:none;stroke-width:0.0700042"
         x="27.953766"
         y="33.122318"
         id="text206"><tspan
           sodipodi:role="line"
           x="27.953766"
           y="33.122318"
           style="font-size:3.88056px;stroke-width:0.0700042"
           id="tspan204">Red del aula 10.1.0.0/16</tspan></text>
    </g>
  </g>
</svg>
